<svg width="500" height="340" viewBox="0 0 500 340" fill="none" xmlns="http://www.w3.org/2000/svg">
<path d="M6.027 336.46C4.775 331.658 1.999 319.74 0.993 314.845L0 310.014L0.021 300.685L0.042 291.356L2.067 301.244C4.368 312.477 6.076 320.217 8.685 331.235C9.682 335.444 10.497 338.932 10.497 338.986C10.497 339.04 9.645 339.085 8.604 339.085H6.712L6.027 336.46ZM15.527 338.657C10.945 323.727 6.532 260.864 8.05 232.159C8.174 229.813 8.246 227.865 8.21 227.828C8.154 227.772 6.073 235.046 1.001 253.025L0.037 256.443L0.019 246.148L0 235.853L1.492 231.622C5.937 219.016 9.587 212.1 11.033 213.546C11.384 213.897 11.352 215.904 10.973 217.302C10.23 220.046 11.836 255.186 13.801 279.185C14.133 283.233 14.404 286.776 14.404 287.058C14.404 287.34 14.514 287.571 14.648 287.571C14.791 287.571 14.892 286.737 14.892 285.557C14.894 275.777 18.332 249.201 21.719 232.796L22.216 230.388L21.356 228.092C17.235 217.089 14.465 185.552 15.837 165.257C17.313 143.421 20.778 123.043 25.428 108.861C28.554 99.3266 31.927 91.9776 33.341 91.6226C33.656 91.5436 34.042 91.3246 34.199 91.1366C35.366 89.7306 36.261 91.9066 36.039 95.6136C35.472 105.092 35.512 106.094 37.002 119.604C37.909 127.83 38.206 129.715 40.039 138.891C40.964 143.524 42.244 150.472 42.882 154.332C43.521 158.192 44.121 161.268 44.216 161.168C44.311 161.068 45.451 158.678 46.748 155.858C61.438 123.936 82.926 92.4436 109.384 64.0616C122.701 49.7756 138.633 36.3516 142.271 36.3516C143.063 36.3516 143.432 37.0726 142.83 37.4436C142.701 37.5236 141.984 38.8666 141.235 40.4286C138.258 46.6436 133.757 54.2266 123.654 70.0426C89.919 122.856 75.85 152.976 62.986 199.926C56.922 222.059 56.684 223.734 58.702 230.039C60.605 235.985 61.996 240.665 66.041 254.735C73.882 282.011 76.771 291.576 76.991 290.99C77.067 290.789 77.412 289.855 77.76 288.915C83.874 272.358 105.007 266.079 120.393 276.248C121.284 276.837 122.065 277.319 122.129 277.319C122.193 277.319 122.045 276.478 121.801 275.451C119.032 263.831 122.809 248.817 129.926 243.151C132.891 240.79 134.264 241.798 132.237 244.846C123.226 258.397 124.516 276.46 135.753 294.079C146.344 310.685 153.079 315.731 167.479 317.849C171.335 318.416 170.97 319.83 170.669 305.499C170.526 298.672 170.409 290.511 170.409 287.364C170.409 275.266 168.964 269.226 164.725 263.596C160.021 257.349 155.248 257.197 152.2 263.198C147.193 273.055 156.103 281.365 161.638 272.001C163.18 269.392 164.187 271.992 162.735 274.837C157.415 285.243 144.875 277.95 147.36 265.896C150.09 252.653 162.496 251.6 170.278 263.952C170.933 264.992 171.506 265.806 171.552 265.76C171.597 265.715 171.911 263.985 172.249 261.916C173.701 253.026 176.416 242.367 180.401 229.899C184.794 216.156 176.852 205.759 168.155 213.868C166.996 214.949 167.11 214.901 166.486 214.567C164.976 213.759 166.845 210.651 169.726 209.178C175.04 206.461 181.297 208.43 184.36 213.783L185.153 215.169L186.077 211.515C189.194 199.187 191.006 184.412 189.308 185.157C186.431 186.421 181.831 187.337 179.686 187.075C176.329 186.664 169.803 184.484 167.831 183.114L166.841 182.426L166 183.148C161.593 186.931 154.653 190.293 148.224 191.759C146.832 192.076 145.662 192.369 145.624 192.409C145.586 192.449 144.934 193.705 144.175 195.2C134.845 213.578 105.234 230.946 90.698 226.567C68.795 219.969 79.991 196.481 108.825 188.54C111.767 187.73 111.713 187.828 109.815 186.745C105.621 184.353 92.608 173.658 91.66 171.825C90.378 169.346 92.009 168.952 98.183 170.249C102.202 171.094 107.048 171.852 108.428 171.852H109.173L107.73 170.431C99.929 162.751 109.502 156.721 121.915 161.497C122.311 161.649 122.343 161.596 122.159 161.086C121.033 157.963 122.954 155.838 127.441 155.242C128.582 155.09 129.549 154.933 129.589 154.893C129.63 154.853 128.311 153.629 126.66 152.174C113.593 140.663 108.846 135.257 106.131 128.796C98.395 110.384 116.073 100.888 133.588 114.047C150.152 126.492 158.893 141.462 162.694 163.892C163.533 168.845 163.688 169.02 166.905 168.66C168.983 168.427 172.245 168.691 174.804 169.299C177.661 169.978 182.456 171.4 184.403 172.146C185.453 172.548 186.363 172.826 186.425 172.764C186.845 172.344 180.503 162.297 177.759 159.035C174.303 154.927 174.01 154.379 170.775 145.974C164.474 129.604 164.048 125.71 168.553 125.71C171.819 125.71 182.397 134.401 188.901 142.428C198.077 153.754 202.72 170.48 200.591 184.547C198.55 198.032 192.789 215.831 187.945 223.618C186.427 226.058 186.289 226.413 184.868 231.544C182.933 238.53 182.962 237.782 184.615 238.163C195.078 240.575 210.858 254.286 221.059 269.828C227.363 279.432 235.839 298.084 235.839 302.352C235.839 305.65 233.192 306.661 229.481 304.78C212.973 296.415 188.654 266.879 181.901 246.993L181.214 244.971L180.817 246.314C176.294 261.601 175.142 276.529 175.891 310.095L176.08 318.579H178.436C190.34 318.579 204.785 316.289 229.464 310.488L238.106 308.457L237.959 303.447C237.531 288.875 233.956 274.477 228.139 263.891C226.391 260.71 226.351 260.539 227.205 259.84C228.215 259.013 228.265 259.036 230.85 261.51C240.214 270.473 246.147 284.31 248.514 302.709C248.838 305.229 249.02 305.998 249.284 305.974C250.532 305.864 257.727 304.548 257.899 304.398C258.246 304.096 253.729 286.548 249.264 270.849C237.233 228.552 235.884 213.445 242.095 190.552C244.974 179.939 245.75 176.211 247.79 163.183C248.61 157.946 249.675 151.355 250.156 148.535C251.112 142.935 251.292 138.154 251.308 118.018C251.322 99.6285 246.527 90.9516 236.89 91.9286C235.514 92.0676 235.313 92.1646 234.636 93.0066C232.619 95.5156 225.747 96.8326 223.031 95.2306C222.521 94.9296 222.074 94.7156 222.037 94.7546C222.001 94.7936 221.075 96.0786 219.981 97.6106C211.894 108.928 199.009 120.623 194.557 120.688C191.653 120.73 191.064 119.164 191.074 111.415L191.081 105.787L186.177 105.777C176.306 105.758 170.585 104.293 156.004 98.0506C152.714 96.6426 148.65 94.9936 146.973 94.3856C140.526 92.0506 140.748 88.9716 147.394 88.5646C157.78 87.9286 167.963 85.9276 179.756 82.2036L182.145 81.4496L180.965 80.7756C176.748 78.3676 176.73 74.4816 180.926 72.4966C182.243 71.8736 182.279 71.8316 181.934 71.3116C180.62 69.3326 182.239 66.8945 185.237 66.3365L186.755 66.0546L184.502 64.7076C180.542 62.3396 178.512 59.7806 179.125 57.9286C180.192 54.7056 187.295 55.9166 194.976 60.6306L195.985 61.2496L196.093 59.7526C196.291 57.0196 198.533 55.7316 200.984 56.9446C201.681 57.2896 202.269 57.5496 202.292 57.5226C202.4 57.3906 203.891 48.0836 204.216 45.5106C205.003 39.2846 205.148 36.6556 205.21 27.4446C205.246 22.2076 205.285 17.6296 205.298 17.2706C205.373 15.1426 207.844 14.3996 209.276 16.0736C212.412 19.7376 220.756 39.8926 223.826 51.2176L224.777 54.7266L226.127 52.1946C228.562 47.6286 231.209 41.5026 234.498 32.8216C236.578 27.3306 237.043 26.5916 238.411 26.5916C240.53 26.5916 240.975 27.8706 241.141 34.4256C241.559 50.9716 238.798 65.9416 233.279 77.0476C231.656 80.3146 231.349 81.1006 231.664 81.1906C234.554 82.0166 236.32 84.2736 236.324 87.1466L236.326 88.0096L238.719 87.9136C249.857 87.4666 255.803 97.5666 256.545 118.197L256.711 122.823L258.358 118.685C268.77 92.5196 281.006 72.4706 290.347 66.2686C294.023 63.8276 294.278 65.0416 290.943 69.1006C279.659 82.8366 269.354 101.944 261.63 123.453L260.995 125.222L262.992 123.497C283.686 105.615 314.707 116.917 308.744 140.167C303.657 159.999 276.368 167.658 270.211 150.981C266.279 140.332 278.648 127.127 286.27 133.836C292.549 139.363 290.331 149.638 282.86 149.638H281.672L281.793 148.565C281.885 147.751 282.269 146.999 283.384 145.452C285.485 142.538 285.535 141.123 283.625 138.626C279.826 133.659 272.601 143.751 275.481 150.002C279.859 159.506 297.422 154.497 302.863 142.193C312.772 119.787 278.991 110.117 261.527 130.36C257.384 135.163 257.556 134.525 252.312 164.531C250.363 175.685 249.653 178.921 246.924 189.11C240.712 212.298 241.955 226.589 253.649 266.459C258.661 283.546 263.424 301.354 263.425 303.005C263.425 303.688 263.719 303.71 267.739 303.32C299.571 300.233 325.937 314.437 333.119 338.542L333.283 339.091H329.771H326.259L325.465 337.284C316.094 315.961 295.207 305.963 266.335 308.981L264.84 309.137L264.971 309.893C265.043 310.309 265.819 314.549 266.695 319.316C267.571 324.083 268.718 330.486 269.244 333.545L270.2 339.101L267.73 339.032L265.26 338.963L264.352 334.691C263.853 332.341 262.556 326.024 261.471 320.653C259.146 309.148 259.376 310.033 258.71 310.032C257.764 310.032 249.642 311.571 249.327 311.812C249.102 311.985 249.022 313.267 249.022 316.716C249.022 321.917 248.713 328.337 248.165 334.52C247.965 336.776 247.802 338.726 247.802 338.853C247.802 338.986 246.654 339.085 245.117 339.085H242.432L242.557 331.334L242.682 323.583L241.483 328.954C240.824 331.908 240.019 335.369 239.694 336.644L239.104 338.963L236.353 339.032C233.81 339.096 233.612 339.068 233.732 338.666C234.346 336.603 237.04 321.737 237.551 317.591C238.018 313.804 238.838 313.976 230.223 316.053C205.946 321.906 193.996 323.901 180.515 324.354L175.85 324.511L175.68 330.882C175.586 334.386 175.447 337.665 175.37 338.169L175.23 339.085H172.812H170.394L170.527 335.118C170.6 332.936 170.717 329.588 170.786 327.678C170.933 323.66 171.364 324.177 167.479 323.714C161.918 323.051 156.931 321.617 152.131 319.301C146.59 316.628 142.989 317.314 133.367 322.877C129.425 325.156 125.976 326.227 125.976 325.172C125.976 322.144 135.628 314.252 140.929 312.946C142.376 312.59 142.431 312.783 140.215 310.433C137.618 307.679 134.933 304.005 130.807 297.558C121.384 282.833 115.729 278.122 106.171 277.035C89.419 275.13 75.957 292.983 84.506 305.764C92.262 317.361 108.882 311.517 109.995 296.802C110.244 293.512 111.302 292.747 112.377 295.079C118.739 308.886 98.576 323.347 85.232 314.546C83.528 313.422 83.53 313.416 84.591 316.793C85.648 320.157 91.471 338.1 91.695 338.686C91.832 339.044 91.472 339.084 88.189 339.084H84.53L84.27 338.413C83.885 337.416 80.545 327.146 78.992 322.182C70.529 295.131 61.126 259.78 56.278 236.79C55.924 235.112 55.571 233.574 55.492 233.372C54.984 232.064 51.371 255.485 49.925 269.452L49.539 273.184L50.399 275.845C50.872 277.309 52.31 282.221 53.593 286.761C59.411 307.338 63.853 319.712 71.873 337.68L72.5 339.084H69.731H66.962L65.937 336.878C58.136 320.089 52.668 303.4 49.42 286.471C48.893 283.722 48.6 283.124 48.583 284.762C48.577 285.433 48.467 287.576 48.341 289.523C47.607 300.874 47.539 328.265 48.223 337.313L48.357 339.083H45.679H43.001L42.865 337.801C42.558 334.902 42.202 324.652 42.067 314.791C41.136 246.806 59.747 170.765 91.303 113.62C99.773 98.2816 105.51 89.2756 129.588 53.5246C137.589 41.6446 137.338 42.0986 134.503 44.6426C117.043 60.3076 93.215 89.0175 76.039 115.086C43.746 164.101 25.501 218.516 20.584 280.491C19.738 291.155 20.21 324.868 21.383 337.559L21.524 339.085H18.591C16.011 339.085 15.643 339.033 15.527 338.657ZM229.076 298.13C223.282 282.181 210.541 263.743 198.481 253.856C193.567 249.828 192.25 249.093 194.77 251.787C201.288 258.755 211.704 274.265 212.776 278.599C213.255 280.534 209.425 276.54 203.469 268.894C196.854 260.401 193.944 256.888 188.655 251.006C185.362 247.344 185.265 247.385 187.504 251.487C197.073 269.019 212.315 286.761 226.443 296.81C229.044 298.661 229.319 298.799 229.076 298.13ZM103.058 222.527C113.197 219.893 125.659 211.432 135.63 200.414C138.462 197.285 142.103 193.016 142.01 192.935C141.561 192.545 136.77 193.473 136.379 194.026C128.886 204.614 98.131 219.644 86.059 218.618L84.35 218.473L85.571 219.615C86.962 220.916 90.027 222.448 92.041 222.847C92.78 222.993 93.604 223.164 93.872 223.227C95.219 223.54 100.794 223.115 103.058 222.527ZM25.374 216.831C26.236 213.219 28.151 206.245 29.835 200.581L31.346 195.501L30.919 193.989C29.124 187.631 27.858 181.062 27.336 175.399C26.809 169.673 27.74 164.586 28.556 168.735C28.721 169.574 29.512 172.568 30.314 175.388C31.908 180.994 33.446 187.072 33.446 187.765C33.446 188.007 33.556 188.205 33.69 188.205C33.824 188.205 33.934 188.093 33.934 187.957C33.934 187.535 37.194 178.563 39.144 173.617L40.997 168.917L39.908 166.133C38.327 162.09 37.506 158.59 36.522 151.706C36.043 148.349 35.162 142.252 34.565 138.156C33.968 134.06 33.251 128.018 32.971 124.728C32.691 121.438 32.249 116.549 31.989 113.864C31.729 111.179 31.44 107.938 31.347 106.662L31.177 104.343L30.347 106.784C23.592 126.655 19.839 160.188 21.208 188.448C22.105 206.972 22.401 210.284 23.602 215.315C24.703 219.909 24.65 219.864 25.374 216.831ZM92.407 214.575C104.357 212.052 122.598 202.762 131.575 194.626L132.902 193.424L129.996 193.139L127.09 192.854L125.176 194.918C120.8 199.639 112.99 203.41 102.661 205.79C96.85 207.129 92.405 206.777 96.486 205.301C104.811 202.29 124.02 192.496 122.542 192.017C122.35 191.955 121.073 191.565 119.704 191.15C118.335 190.735 116.718 190.184 116.111 189.924L115.007 189.451L110.665 191C98.942 195.181 93.981 197.93 88.867 203.079C84.614 207.361 82.142 212.454 83.103 214.957C83.324 215.534 88.959 215.303 92.407 214.575ZM194.464 192.723C200.187 167.851 193.235 149.214 172.12 132.816C170.711 131.722 169.518 130.946 169.469 131.093C169.246 131.763 170.842 136.211 173.968 143.625C175.106 146.325 176.324 149.227 176.675 150.074C177.52 152.115 178.775 153.997 180.775 156.225C182.476 158.119 183.123 159.041 186.518 164.404C188.422 167.411 188.518 167.52 188.352 166.479C188.038 164.522 186.559 159.761 185.306 156.674C183.676 152.661 183.882 151.84 185.952 154.089C193.13 161.887 196.138 178.767 193.36 195.654C192.759 199.29 193.255 197.978 194.464 192.723ZM143.554 189.057C149.309 188.174 153.376 186.839 159.215 183.916C164.073 181.484 164.346 181.224 161.081 182.14C144.223 186.873 124.882 186.367 108.405 180.762C106.169 180.001 106.23 180.11 109.082 181.961C115.135 185.889 121.885 188.399 128.442 189.161C129.704 189.307 131.066 189.474 131.469 189.53C133.023 189.748 141.114 189.431 143.554 189.057ZM187.133 182.501C190.03 181.14 189.682 178.801 186.318 177.023C183.208 175.379 171.013 172.337 167.535 172.337H166.585L167.53 175.084C169.001 179.362 168.843 179.127 170.898 180.084C177.086 182.965 183.964 183.989 187.133 182.501ZM149.902 181.098C152.865 180.741 152.796 180.704 147.654 179.903C141.15 178.89 136.178 177.191 137.079 176.289C137.17 176.198 143.348 176.157 150.808 176.199C163.169 176.268 164.357 176.24 164.221 175.884C164.138 175.669 163.898 174.92 163.686 174.22C162.685 170.91 156.523 167.941 150.657 167.943C146.317 167.946 143.993 168.483 134.9 171.599C124.589 175.132 115.048 176.257 106.45 174.954C105.042 174.741 103.854 174.603 103.81 174.647C103.486 174.971 111.531 177.648 115.479 178.529C127.295 181.169 140.899 182.184 149.902 181.098ZM134.755 168.386C137.513 167.556 139.808 166.848 139.856 166.814C140.233 166.542 138.821 164.178 137.455 162.797C133.89 159.189 125.163 157.67 127.991 161.15C129.985 163.603 130.406 165.18 129.331 166.163C128.311 167.097 127.892 167.059 123.816 165.659C113.591 162.148 105.763 162.986 110.62 167.073C113.022 169.094 114.599 169.46 121.702 169.643C125.059 169.73 128.241 169.822 128.773 169.848C129.374 169.878 131.646 169.322 134.755 168.386ZM159.359 166.161C159.033 165.731 157.308 163.017 155.526 160.13C153.743 157.243 151.667 153.892 150.911 152.684C146.957 146.36 134.505 130.843 128.705 125.011C125.717 122.007 116.493 114.488 113.593 112.692C112.662 112.116 109.97 114.408 108.916 116.673C105.732 123.517 111.599 133.225 127.075 146.714C138.197 156.409 142.285 161.02 143.091 164.777C143.341 165.941 143.397 166.01 144.005 165.894C144.362 165.826 145.126 165.699 145.703 165.612C146.281 165.525 146.716 165.382 146.67 165.294C146.624 165.206 145.473 162.882 144.11 160.13C142.748 157.377 140.565 153.203 139.259 150.853C133.163 139.881 139.694 144.536 146.529 156.035C148.675 159.645 149.585 161.792 150.241 164.794C150.372 165.394 150.484 165.437 152.277 165.58C154.394 165.749 156.348 166.213 158.409 167.036C160.024 167.681 160.311 167.417 159.359 166.161ZM113.576 125.801C111.787 124.89 111.057 123.002 111.666 120.861C112.992 116.199 118.687 116.881 118.687 121.702C118.687 124.838 115.968 127.019 113.576 125.801ZM115.586 122.967C116.394 121.813 115.853 120.106 114.787 120.445C114.141 120.65 113.576 122.617 114.012 123.142C114.451 123.671 115.147 123.594 115.586 122.967ZM156.858 153.153C152.278 137.195 139.526 120.9 126.587 114.468C121.575 111.977 116.3 110.985 120.792 113.378C129.164 117.839 134.194 122.631 144.881 136.327C149.941 142.813 155.702 152.123 157.483 156.693C158.218 158.58 157.902 156.792 156.858 153.153ZM199.785 112.826C204.358 109.176 215.678 98.1316 215.263 97.7266C214.828 97.3016 207.253 101.766 206.443 102.925C203.995 106.428 201.586 108.693 199.962 109.017C198.812 109.247 199.262 108.409 202.136 104.968C203.976 102.765 204.065 102.824 200.415 103.822C198.75 104.277 196.948 104.724 196.411 104.815L195.434 104.98L195.375 110.597L195.316 116.214L196.441 115.407C197.058 114.962 198.563 113.801 199.785 112.826ZM192.918 100.441C204.055 98.9746 219.446 91.6686 222.065 86.6046C222.548 85.6706 222.549 85.6706 219.23 87.6346C206.717 95.0386 184.895 98.5435 166.123 96.1635C163.611 95.8445 163.621 95.9595 166.185 96.8875C175.923 100.412 184.489 101.551 192.918 100.441ZM190.184 92.8916C201.932 91.5666 208.131 89.9645 216.736 86.0305C221.612 83.8005 222.331 83.3446 219.688 84.1566C216.839 85.0316 214.635 85.2666 209.105 85.2846C199.003 85.3176 201.151 84.3786 213.866 83.2026C220.382 82.5996 220.419 82.5875 218.824 81.5715C213.531 78.1985 206.962 78.6856 193.114 83.4796C177.673 88.8246 170.525 90.8376 162.662 92.0556C160.03 92.4636 160.339 92.6495 164.183 92.9745C165.929 93.1215 167.796 93.2835 168.333 93.3345C171.029 93.5855 186.865 93.2656 190.184 92.8916ZM228.004 92.2436C232.675 91.1666 233.865 87.5475 230.341 85.1385L229.032 84.2436L228.652 84.8236C228.443 85.1426 227.627 86.0946 226.839 86.9396C225.569 88.2996 223.876 91.0616 223.876 91.7716C223.876 92.4356 226.08 92.6866 228.004 92.2436ZM223.06 75.9626C222.762 67.4656 220.694 57.1516 216.71 44.2856C214.281 36.4436 214.194 36.3796 215.682 43.5356C218.299 56.1166 218.97 68.8136 217.373 75.5536C217.276 75.9626 217.487 76.1816 218.474 76.6936L219.695 77.3276L219.822 76.0656C219.892 75.3716 220.066 73.6526 220.208 72.2466C220.471 69.6566 220.761 68.8676 221.196 69.5556C221.504 70.0436 221.493 74.6605 221.178 76.5995L220.926 78.1516L221.973 79.3206C222.549 79.9636 223.065 80.5016 223.12 80.5146C223.176 80.5296 223.148 78.4806 223.06 75.9626ZM228.841 76.0216C233.117 66.0326 235.803 53.9626 236.447 41.8446C236.525 40.3676 236.643 38.6646 236.708 38.0606C236.88 36.4656 236.622 37.0206 234.498 42.8216C231.615 50.6956 229.013 55.8656 226.735 58.2466L225.758 59.2676L226.281 62.5466C226.569 64.3496 226.804 66.1376 226.804 66.5186C226.804 67.7676 227.202 66.8346 228.842 61.7426C230.479 56.6596 231.154 55.1506 231.789 55.1506C233.389 55.1506 231.444 64.5826 228.441 71.3856C227.465 73.5976 227.348 74.0675 227.205 76.3905C227.118 77.8005 226.977 79.2286 226.892 79.5646C226.532 80.9896 227.357 79.4886 228.841 76.0216ZM190.184 78.1886C191.594 77.9856 193.846 77.5056 195.189 77.1206C197.337 76.5056 200.166 75.7776 202.194 75.3166L202.851 75.1676L202.363 74.0646C201.566 72.2636 201.179 69.8636 201.175 66.6956C201.17 63.6086 200.683 61.4756 199.819 60.7586C199.364 60.3806 199.367 60.4126 199.95 62.1086C201.176 65.6726 199.316 67.3446 196.373 65.3236C195.722 64.8766 194.145 63.7916 192.87 62.9136C188.367 59.8126 182.723 57.6486 181.73 58.6406C181.138 59.2326 183.546 61.0886 188.141 63.5826C195.014 67.3136 195.26 69.3066 188.848 69.3136C184.123 69.3186 183.686 69.5406 185.917 70.7996C188.68 72.3586 188.345 74.0156 185.179 74.4476C180.954 75.0236 179.667 76.3766 182.027 77.7596C183.877 78.8426 185.163 78.9106 190.184 78.1886ZM214.182 71.4465C214.436 64.9735 213.834 53.0226 212.869 45.3846C212.423 41.8576 210.483 29.7166 210.342 29.5736C210.307 29.5386 210.202 31.5156 210.108 33.9686C209.799 42.0456 209.193 46.5636 206.971 57.3316C205.249 65.6736 204.897 70.9476 205.891 73.5226L206.338 74.6826H208.297H210.256L210.098 74.0546C209.179 70.3926 209.55 57.7956 210.571 58.0096C210.962 58.0916 211.344 61.5195 211.531 66.6255C211.813 74.3335 211.929 74.7536 213.889 75.1416C213.97 75.1566 214.102 73.4935 214.182 71.4465ZM26.124 332.798C26.13 304.258 28.084 274.976 31.267 255.711C34.24 237.72 40.534 216.371 42.334 218.171C42.789 218.626 42.473 220.774 40.26 232.273C36.317 252.759 34.073 270.101 32.836 289.646C31.822 305.673 29.954 330.454 29.423 334.943C29.225 336.616 29.06 338.233 29.058 338.535C29.053 339.043 28.943 339.084 27.588 339.084H26.123L26.124 332.798ZM338.414 337.558C336.226 324.59 337.408 312.373 341.328 307.441C343.346 304.902 345.874 304.967 344.775 307.53C342.612 312.576 342.869 326.27 345.353 338.291L345.517 339.084H342.094H338.671L338.414 337.558ZM376.219 338.97C376.219 338.561 374.353 315.733 373.644 307.469C367.639 237.478 362.427 218.227 347.845 212.178C342.671 210.031 335.976 212.931 338.709 216.135C342.909 221.06 342.362 224.245 336.446 229.293C333.527 231.784 333.691 231.546 333.852 233.062C334.124 235.636 335.603 238.38 339.938 244.359C359.933 271.934 363.515 278.542 365.004 290.593C366.612 303.608 360.378 316.563 357.904 305.347C355.286 293.474 349.507 282.658 339.331 270.582C333.612 263.795 330.472 259.301 328.624 255.254C328.203 254.331 327.798 253.636 327.726 253.708C327.527 253.907 324.045 264.194 323.361 266.602C321.187 274.258 321.447 281.062 324.346 292.371C325.491 296.839 325.636 297.983 325.133 298.583C323.661 300.338 322.957 299.887 318.518 294.334C309.196 282.674 305.638 276.155 303.934 267.61C303.646 266.168 303.368 264.841 303.316 264.662C303.25 264.435 302.91 264.583 302.194 265.15C296.949 269.306 292.512 264.42 294.762 256.965C295.279 255.25 295.273 255.241 293.951 255.707C290.138 257.052 287.763 254.662 288.89 250.612C289.072 249.96 289.045 249.921 288.524 250.073C277.598 253.264 265.476 251.322 256.743 244.981C251.997 241.535 253.027 239.301 261.637 234.366C264.299 232.84 269.334 229.811 272.825 227.636C280.571 222.81 284.001 220.89 287.443 219.455L290.078 218.356L283.893 218.203C269.727 217.853 261.213 214.623 253.901 206.822C245.964 198.355 244.238 190.493 251.219 194.603C256.997 198.005 265.395 199.286 274.168 198.103C275.578 197.913 278.489 197.517 280.638 197.224C293.542 195.463 302.871 197.848 310.102 204.756C312.801 207.334 314.345 209.519 317.249 214.867C318.302 216.806 318.236 216.808 319.822 214.782C325.159 207.967 328.653 207.053 333.7 211.151C334.552 211.843 335.274 212.373 335.306 212.33C335.337 212.287 335.604 211.85 335.899 211.359C337.175 209.235 339.795 207.64 342.763 207.181L344.43 206.923L342.908 205.07C339.454 200.865 337.834 197.904 335.675 191.848C333.785 186.548 332.197 183.451 328.607 178.071C323.977 171.131 323.657 168.73 327.377 168.827C330.378 168.906 344.157 178.943 350.766 185.865C365.065 200.841 373.772 223.99 371.316 240.5C371.074 242.129 371.117 242.614 371.822 246.186C372.246 248.334 373.066 253.112 373.645 256.805C374.312 261.061 374.763 263.34 374.879 263.031C378.192 254.146 383.815 244.941 394.823 230.387C404.79 217.208 404.564 243.665 394.561 261.05C390.709 267.744 381.44 276.744 376.92 278.178C376.559 278.293 376.458 278.48 376.552 278.862C376.623 279.151 377.076 283.343 377.559 288.177C378.042 293.011 378.464 297.057 378.495 297.169C378.527 297.281 378.979 296.753 379.501 295.996C384.002 289.46 391.983 289.863 395.486 296.803C398.385 302.546 396.925 310.762 392.63 312.877C390.179 314.084 388.69 312.771 390.357 310.873C393.972 306.756 391.692 296.113 387.195 296.113C380.013 296.113 377.772 312.053 381.557 336.213L382.006 339.081H379.114C377.52 339.084 376.219 339.033 376.219 338.97ZM360.527 292.881C360.123 284.898 357.088 277.25 350.281 267.063C348.16 263.889 336.904 248.02 336.773 248.02C336.65 248.02 338.559 251.158 342.036 256.676C345.582 262.302 347.831 266.819 347.086 266.819C344.934 266.819 332.707 249.367 330.323 242.893L329.828 241.55L329.93 243.747C330.241 250.484 333.839 256.9 343.141 267.306C351.415 276.561 356.062 283.854 359.361 292.758C360.666 296.282 360.699 296.286 360.527 292.881ZM315.047 282.505C310.86 268.922 311.468 260.293 317.879 242.283C319.715 237.125 321.131 232.646 320.974 232.49C320.933 232.449 320.025 234.026 318.957 235.994C315.741 241.917 313.074 245.832 312.687 245.197C311.984 244.042 317.245 232.573 319.82 229.648L320.777 228.561L320.103 227.915C317.362 225.289 309.68 237.457 307.409 248.021C304.88 259.787 307.13 271.206 314.11 282.017C315.372 283.971 315.523 284.05 315.047 282.505ZM318.123 269.016C318.739 265.848 319.438 263.51 321.411 258.03C324.431 249.641 324.937 247.041 325.118 238.987L325.252 233.006L324.648 232.448L324.044 231.89L323.879 233.869C323.672 236.357 322.528 240.767 320.306 247.654C316.177 260.451 315.496 266.691 317.162 276.463C317.185 276.597 317.298 275.554 317.414 274.144C317.53 272.733 317.849 270.426 318.123 269.016ZM389.221 259.976C393.861 253.472 397.482 243.603 398.181 235.555C398.45 232.459 398.485 232.5 397.158 234.393C383.77 253.486 382.282 255.787 380.012 260.917C379.038 263.117 377.683 266.657 377.683 266.999C377.683 267.081 378.679 265.683 379.897 263.892C384.224 257.527 388.412 252.416 389.301 252.416C391.03 252.416 389.406 255.933 383.553 264.867L380.594 269.383L384.082 265.836C386.001 263.885 388.313 261.248 389.221 259.976ZM300.913 262.026C302.088 260.487 302.882 257.839 303.193 254.426C303.532 250.696 304.418 246.532 305.634 242.955C306.148 241.444 306.536 240.208 306.496 240.208C306.457 240.208 305.545 240.871 304.47 241.681C300.911 244.363 293.214 248.753 292.072 248.753C291.744 248.753 291.351 249.964 291.111 251.717C290.828 253.778 291.938 253.738 295.667 251.552C298.065 250.146 298.998 250.116 299.675 251.424C300.073 252.194 299.935 252.979 298.987 255.344C296.462 261.641 297.763 266.152 300.913 262.026ZM283.653 246.192C293.135 244.081 303.376 237.632 309.874 229.681C311.18 228.082 311.027 228.066 308.974 229.584C294.834 240.041 275.493 246.012 263.671 243.571C262.139 243.255 263.746 243.973 266.98 245.05C272.336 246.836 278.781 247.277 283.653 246.192ZM274.672 239.631C285.137 237.826 293.32 234.884 300.457 230.358C303.354 228.521 308.419 224.818 308.256 224.655C308.064 224.463 303.68 226.426 298.366 229.086C293.544 231.499 290.665 232.64 289.4 232.64C286.118 232.64 298.955 223.74 305.417 221.536L307.248 220.911L303.952 221.023C296.268 221.285 290.27 223.464 280.026 229.715C272.223 234.476 269.033 236.309 265.158 238.255C262.881 239.399 261.533 240.204 261.74 240.297C262.591 240.678 271.16 240.236 274.672 239.631ZM328.856 230.731C328.856 230.303 333.789 225.67 335.2 224.773C338.62 222.599 338.468 220.823 334.512 216.709C329.014 210.992 327.959 211.009 323.363 216.893C320.089 221.083 320.076 221.369 322.995 224.727C323.802 225.655 325.314 227.428 326.354 228.665C328.035 230.665 328.856 231.343 328.856 230.731ZM367.064 226.394C363.917 210.885 355.514 196.188 343.797 185.698C341.43 183.579 337.246 180.15 337.028 180.15C336.981 180.15 337.96 181.166 339.204 182.408C348.666 191.856 357.3 205.051 361.609 216.649C362.008 217.723 363.031 219.865 363.882 221.41C364.733 222.954 365.9 225.396 366.476 226.836C367.052 228.276 367.553 229.424 367.59 229.387C367.628 229.349 367.391 228.003 367.064 226.394ZM305.311 214.353C303.715 211.771 293.589 209.246 282.714 208.719C270.896 208.146 264.467 206.898 258.056 203.934L255.737 202.862L257.636 204.679C265.163 211.881 271.171 213.565 290.405 213.865C297.253 213.972 303.35 214.161 303.955 214.286C305.476 214.6 305.463 214.599 305.311 214.353ZM353.559 207.426C350.332 200.628 345.008 192.657 340.313 187.594C339.34 186.545 338.607 185.896 338.685 186.153C341.596 195.816 344.877 201.113 352.646 208.688C355.276 211.254 355.336 211.171 353.559 207.426ZM304.075 208.47C303.992 208.336 303.793 208.228 303.633 208.23C303.458 208.233 303.488 208.328 303.709 208.47C304.178 208.773 304.263 208.773 304.075 208.47ZM302.977 207.981C302.776 207.85 301.156 207.125 299.377 206.369C292.481 203.438 292.185 201.482 298.878 203.067C301.445 203.675 301.506 203.588 299.187 202.623C293.367 200.2 288.857 199.973 277.618 201.536C274.986 201.902 271.166 202.236 268.553 202.329L264.036 202.49L267.454 203.152C271.986 204.03 274.212 204.257 282.418 204.684C291.729 205.168 299.959 206.52 302.451 207.975C302.98 208.284 303.452 208.289 302.977 207.981ZM439.68 337.925C426.551 308.97 424.377 270.958 433.7 233.348C434.312 230.88 434.812 228.79 434.812 228.705C434.812 228.619 434.18 228.502 433.408 228.443C424.175 227.747 419.158 211.199 422.729 193.212C424.883 182.359 427.299 176.244 429.433 176.244C431.816 176.244 432.111 177.39 431.235 183.259C429.359 195.833 430.496 203.049 435.784 212.135C436.994 214.215 438.025 216.026 438.074 216.161C438.38 216.995 444.768 195.706 447.139 185.949C453.115 161.363 450.764 143.072 440.287 132.63C433.766 126.131 425.513 126.224 419.684 132.863L418.889 133.769L419.739 134.806C423.218 139.052 422.809 142.083 418.543 143.665C417.891 143.907 417.327 144.124 417.291 144.149C417.254 144.173 417.408 145.28 417.634 146.608C419.641 158.439 415.731 174.332 407.805 186.56C397.392 202.625 378.804 217.207 376.319 211.261C375.701 209.782 375.916 209.305 380.117 202.857C385.118 195.18 390.457 185.925 392.624 181.175C395.938 173.913 395.825 174.385 394.279 174.236C391.585 173.977 390.484 171.408 391.479 167.7C391.677 166.962 391.841 166.334 391.842 166.305C391.845 166.276 391.323 166.476 390.685 166.75C386.378 168.596 383.384 165.583 384.89 160.918C385.064 160.378 385.037 160.367 384.002 160.552C380.49 161.18 378.525 160.157 378.231 157.548C378.115 156.518 378.062 156.446 377.522 156.581C377.201 156.662 375.486 156.836 373.711 156.969C371.935 157.102 369.219 157.369 367.675 157.563C362.272 158.241 359.196 158.415 351.928 158.448C347.9 158.467 343.318 158.608 341.746 158.762C335.021 159.42 334.489 156.98 340.403 152.601C342.176 151.288 346.648 147.964 350.341 145.214C360.458 137.68 363.262 135.745 367.613 133.297C379.732 126.478 387.672 125.708 400.613 130.097L405.476 131.746L406.778 130.425C410.379 126.77 412.701 126.587 415.476 129.738L416.451 130.845L417.122 129.701C421.982 121.408 434.019 119.999 442.574 126.722C443.431 127.395 444.169 127.91 444.213 127.865C444.919 127.159 438.616 106.682 435.057 98.1205C427.756 80.5555 427.363 77.8926 430.07 64.3786C431.631 56.5856 432.177 55.1596 433.913 54.3356C437.458 52.6536 439.792 55.6446 449.407 74.1945C465.261 104.784 468.472 135.234 459.35 168.501C458.88 170.217 458.495 171.737 458.495 171.88C458.495 172.572 466.472 164.732 470.36 160.219C476.79 152.754 480.417 154.862 477.566 164.407C473.708 177.324 465.892 188.14 457.279 192.483C456.543 192.854 455.275 193.72 454.462 194.407C453.649 195.094 452.588 195.924 452.104 196.252C451.386 196.739 451.15 197.12 450.819 198.327C450.596 199.14 448.996 204.585 447.263 210.426C438.619 239.566 435.954 252.918 435.179 270.972L435.027 274.512L435.812 273.291C436.244 272.62 438.485 269.159 440.792 265.601C445.853 257.795 447.661 254.84 450.797 249.244C453.511 244.401 454.366 243.08 455.135 242.541C460.829 238.553 460.056 255.252 453.955 268.025C450.231 275.822 445.562 279.998 437.011 283.183L435.18 283.865L435.254 286.147C435.791 302.786 439.614 321.253 445.874 337.44L446.511 339.088H443.359H440.208L439.68 337.925ZM446.111 271.717C449.811 267.721 452.935 261.29 454.443 254.564C455.354 250.503 455.267 250.47 453.287 254.124C451.012 258.322 449.374 261.002 446.155 265.79C443.64 269.532 443.608 269.595 444.901 268.322C447.999 265.272 448.087 268.221 445.015 272.148C443.553 274.018 444.226 273.754 446.111 271.717ZM432.222 220.764C430.737 218.292 430.371 217.223 430.899 216.897C431.401 216.587 432.368 217.618 434.214 220.436C435.39 222.231 436.218 223.274 436.357 223.135C436.729 222.763 435.329 220.122 432.444 215.754C429.462 211.24 428.07 208.573 426.866 205.076L426.06 202.733L426.043 204.564C425.979 211.699 428.3 218.549 432.029 222.225C433.849 224.019 433.908 223.572 432.222 220.764ZM388.059 202.253C408.508 185.314 417.68 161.183 411.122 141.575C410.695 140.299 410.33 139.237 410.311 139.215C410.292 139.193 410.274 142.708 410.271 147.028C410.258 169.123 404.922 182.575 389.446 199.533C384.445 205.014 384.239 205.418 388.059 202.253ZM463.438 180.945C466.454 177.356 472.166 167.829 472.166 166.388C472.166 166.241 471.04 167.228 469.664 168.581C468.288 169.934 465.843 172.18 464.232 173.571C460.872 176.473 457.998 179.293 456.781 180.882L455.94 181.981L457.4 180.659C460.263 178.067 461.453 177.471 462.132 178.289C462.772 179.06 460.702 181.811 456.078 186.337C454.391 187.988 453.124 189.424 453.124 189.684C453.122 190.38 461.407 183.361 463.438 180.945ZM400.269 176.413C404.145 168.253 408.584 149.57 408.192 143.063C408.147 142.319 406.063 147.35 405.249 150.168C404.705 152.052 404.612 152.699 404.796 153.34C405.946 157.349 404 165.77 400.96 169.941C400.248 170.918 400.092 171.386 399.892 173.146C399.695 174.878 399.007 177.747 398.301 179.784C397.888 180.973 399.04 179 400.269 176.413ZM395.962 169.519C399.274 166.732 401.728 157.16 400.002 153.757C399.357 152.484 396.016 149.632 395.175 149.636C391.861 149.652 386.728 152.037 384.017 154.82C382.116 156.771 382.545 156.759 388.205 154.696C392.699 153.059 393.581 153.063 394.27 154.724C394.777 155.947 394.404 156.683 392.209 158.787C387.407 163.391 388.153 164.378 393.473 160.458C397.552 157.452 399.438 158.945 397.108 163.337C394.701 167.877 394.107 171.08 395.962 169.519ZM364.744 153.293C366.825 153.141 370.451 152.681 372.801 152.271C375.151 151.861 378.282 151.402 379.759 151.251C382.128 151.008 382.574 150.886 383.543 150.215C385.053 149.17 387.013 148.205 388.994 147.531C390.13 147.144 391.373 146.428 392.9 145.279C394.132 144.352 396.041 143.062 397.143 142.411C399.919 140.772 399.75 140.797 392.905 143.039C379.743 147.35 374.754 148.63 374.754 147.695C374.754 147.128 380.529 144.28 385.925 142.185C388.191 141.305 388.11 141.275 385.008 141.841C378.85 142.964 370.936 145.264 364.744 147.729C361.919 148.854 352.097 153.394 351.809 153.708C351.632 153.902 360.187 153.627 364.744 153.293ZM458.153 144.983C459.88 126.074 457.252 106.247 450.919 90.3926C447.515 81.8706 437.736 63.1986 437.536 64.8396C436.996 69.2796 440.165 80.7165 445.065 92.0155C454.51 113.792 457.516 126.982 457.516 146.649C457.517 150.747 457.662 150.367 458.153 144.983ZM362.791 143.704C374.083 139.315 384.62 137.221 399.471 136.415L405.023 136.114L402.4 135.46C400.957 135.1 398.569 134.47 397.092 134.059C387.203 131.31 380.308 132.182 370.969 137.363C367.513 139.28 358.405 145.345 359.616 144.923C359.818 144.852 361.247 144.304 362.791 143.704ZM417.617 140.343C418.212 139.934 418.699 139.456 418.699 139.281C418.699 138.629 414.736 133.508 412.747 131.59L411.887 130.76L410.288 131.802C408.377 133.047 408.402 132.783 410.093 133.832C412.203 135.142 416.013 139.603 416.013 140.764C416.013 141.265 416.441 141.153 417.617 140.343ZM452.269 128.677C450.713 116.899 448.24 108.864 441.786 94.6206C438.489 87.3436 437.039 83.2166 436.156 78.5876C435.132 73.2246 435.06 73.0186 435.175 75.7796C435.367 80.3916 436.175 83.0395 440.312 92.6255C445.966 105.725 448.138 112.617 451.579 128.383C452.624 133.171 452.877 133.279 452.269 128.677ZM476.894 338.664C479.16 330.969 479.501 317.698 478.023 294.773C477.755 290.611 477.372 284.678 477.172 281.589C474.414 238.921 481.022 219.055 499.101 215.663L499.996 215.495V217.6V219.705L498.661 220.295C487.687 225.148 483.099 236.088 483.092 257.418C483.089 265.269 483.238 268.445 484.257 282.198C485.404 297.681 485.588 300.653 485.883 308.379C486.312 319.63 485.787 328.881 484.301 336.275L483.761 338.96L480.263 339.027C477.01 339.093 476.776 339.067 476.894 338.664ZM96.191 263.645C94.635 262.089 96.914 259.495 98.605 260.898C99.919 261.989 99.198 264.133 97.516 264.133C97.005 264.134 96.489 263.943 96.191 263.645ZM104.163 260.757C103.233 259.73 103.944 258.03 105.304 258.03C106.647 258.03 107.353 259.518 106.553 260.661C106.074 261.345 104.744 261.399 104.163 260.757ZM111.17 257.555C109.301 256.76 109.462 253.699 111.399 253.197C112.471 252.919 113.157 253.091 113.885 253.818C115.636 255.569 113.48 258.537 111.17 257.555ZM95.789 255.742C93.783 254.017 96.394 251.038 98.477 252.676C98.996 253.084 99.12 253.387 99.12 254.245C99.121 256.116 97.217 256.971 95.789 255.742ZM102.831 251.634C102.014 250.817 102.832 248.997 104.015 248.997C104.494 248.997 105.468 249.994 105.468 250.484C105.468 251.637 103.634 252.436 102.831 251.634ZM98.192 245.396C97.366 244.682 97.299 243.96 97.995 243.264C99.085 242.174 100.585 242.737 100.585 244.237C100.585 245.601 99.203 246.27 98.192 245.396ZM44.109 210.691C43.287 206.579 47.213 193.868 56.826 169.522C64.866 149.16 67.865 142.664 71.18 138.427C74.386 134.329 73.915 137.058 69.456 148.411C63.089 164.622 58.173 177.623 53.718 190.037C47.577 207.146 44.656 213.426 44.109 210.691ZM369.493 179.306C368.618 178.43 368.694 177.371 369.705 176.36C371.199 174.866 373.551 174.996 373.735 176.582C374.013 178.987 371.066 180.879 369.493 179.306ZM381.851 175.356C381.215 174.547 381.209 173.938 381.833 173.314C382.89 172.257 384.992 173.314 384.651 174.73C384.319 176.109 382.724 176.466 381.851 175.356ZM375.052 168.783C373.995 168.042 374.619 166.233 375.932 166.233C376.765 166.233 377.511 167.127 377.324 167.902C377.037 169.097 376.047 169.48 375.052 168.783ZM106.689 155.492C106.081 154.884 106.018 152.932 106.581 152.128C107.372 150.999 108.869 151.699 109.344 153.419C109.894 155.411 108.049 156.852 106.689 155.492ZM115.288 152.914C114.604 152.435 114.55 151.105 115.192 150.524C115.814 149.961 116.831 150.02 117.421 150.654C118.7 152.027 116.838 154 115.288 152.914ZM106.5 146.202C105.893 145.961 105.459 145.084 105.659 144.505C106.294 142.675 108.642 143.003 108.642 144.922C108.642 146.025 107.608 146.643 106.5 146.202ZM78.209 124.597C77.716 123.312 82.839 113.79 84.045 113.749C84.906 113.72 82.075 120.751 79.903 124.032C79.258 125.008 78.467 125.271 78.209 124.597ZM497.435 96.0396C489.345 92.5076 482.713 81.8546 477.757 64.4266C475.718 57.2576 472.594 51.7086 469.869 50.4156C467.405 49.2466 464.787 50.6106 464.114 53.4166C463.567 55.6976 461.727 55.0596 461.482 52.5046C461.179 49.3506 463.695 46.2566 466.991 45.7296C468.369 45.5096 468.367 45.5056 465.512 43.0166C458.428 36.8406 452.732 34.2866 448.676 35.4656C446.028 36.2356 445.323 38.8666 447.236 40.8406C449.122 42.7866 446.755 43.7386 444.642 41.8836C437.903 35.9666 447.366 28.9946 457.11 32.6976C458.691 33.2986 458.719 33.4736 456.742 30.3696C449.306 18.6906 448.421 10.4946 454.595 10.4766C462.11 10.4546 469.87 18.4506 474.375 30.8586C475.453 33.8266 475.484 33.8256 475.677 30.8096C476.893 11.8336 481.57 -0.531435 487.323 0.0175653C488.727 0.151565 488.598 0.996556 486.95 2.46456C483.89 5.19156 482.505 10.0696 481.208 22.6796C479.48 39.4816 479.903 45.6526 483.886 61.7416C484.933 65.9716 485.971 70.3656 486.193 71.5076C487.341 77.4186 494.457 88.0186 498.714 90.1586L499.996 90.8026V93.8506C499.997 97.3786 500.168 97.2326 497.435 96.0396ZM472.049 39.9626C467.978 23.8536 461.385 13.7456 454.684 13.3376L453.732 13.2796L453.658 14.2966C453.446 17.2106 457.834 25.7066 463.063 32.5036C465.382 35.5186 472.763 43.9556 472.851 43.6926C472.895 43.5606 472.534 41.8816 472.049 39.9626ZM172.186 68.5726C171.046 68.1136 171.258 66.0556 172.477 65.7496C174.016 65.3636 175.062 67.5376 173.772 68.4416C173.164 68.8686 172.962 68.8846 172.186 68.5726ZM170.076 57.5736C168.735 56.5186 169.663 53.9296 171.381 53.9296C172.968 53.9296 173.586 56.3736 172.282 57.4956C171.448 58.2126 170.912 58.2316 170.076 57.5736ZM192.809 55.6186C191.831 55.0486 192.952 52.7276 194.016 53.1206C194.949 53.4656 195.11 54.6186 194.335 55.3946C193.792 55.9366 193.443 55.9876 192.809 55.6186ZM186.54 51.3326C185.449 49.9456 186.187 48.0696 187.823 48.0696C189.401 48.0696 190.282 50.0546 189.316 51.4336C188.747 52.2466 187.215 52.1906 186.54 51.3326ZM177.288 50.6786C176.673 50.0236 176.615 49.2966 177.103 48.3546C177.85 46.9096 180.016 46.6326 180.623 47.9046C181.603 49.9616 178.803 52.2916 177.288 50.6786ZM195.653 45.0426C194.681 44.0706 194.58 43.1886 195.357 42.4646C196.744 41.1726 199.765 42.7486 199.317 44.5306C198.931 46.0696 196.956 46.3456 195.653 45.0426ZM187.262 42.8746C185.072 41.7666 186.245 39.0656 188.656 39.6666C190.436 40.1106 190.713 42.1566 189.085 42.8376C188.074 43.2596 188.024 43.2606 187.262 42.8746Z" fill="#CEA335" fill-opacity="0.1"/>
</svg>
