<svg width="800" height="800" viewBox="0 0 800 800" fill="none" xmlns="http://www.w3.org/2000/svg">
<path d="M555.273 309.546C603.267 339.54 627.26 354.537 635.49 373.74C642.677 390.507 642.677 409.49 635.49 426.26C627.26 445.46 603.267 460.457 555.273 490.453L329.867 631.333C276.602 664.623 249.969 681.27 227.991 679.5C208.834 677.96 191.273 668.23 179.813 652.8C166.667 635.1 166.667 603.693 166.667 540.88V259.119C166.667 196.306 166.667 164.9 179.813 147.199C191.273 131.77 208.834 122.037 227.991 120.497C249.969 118.73 276.602 135.375 329.867 168.666L555.273 309.546Z" stroke="#650000" stroke-width="100" stroke-linejoin="round"/>
</svg>
